# AST/ASF file generated using VICON BodyLanguage
# -----------------------------------------------
:version 1.10
:name VICON
:units
  mass 1.0
  length 0.45
  angle deg
:documentation
   .ast/.asf automatically generated from VICON data using
   VICON BodyBuilder and BodyLanguage model FoxedUp or BRILLIANT.MOD
:root
   order TX TY TZ RX RY RZ
   axis XYZ
   position 0 0 0  
   orientation 0 0 0 
:bonedata
  begin
     id 1 
     name lhipjoint
     direction 0.577973 -0.728611 0.367523 
     length 2.48544 
     axis 0 0 0  XYZ
  end
  begin
     id 2 
     name lfemur
     direction 0.34202 -0.939693 0  
     length 7.1921  
     axis 0 0 20  XYZ
    dof rx ry rz
    limits (-160.0 20.0)
           (-70.0 70.0)
           (-60.0 70.0)
  end
  begin
     id 3 
     name ltibia
     direction 0.34202 -0.939693 0   
     length 7.71059   
     axis 0 0 20   XYZ
    dof rx
    limits (-10.0 170.0)
  end
  begin
     id 4 
     name lfoot
     direction 0.089538 -0.246004 0.965124   
     length 2.19909   
     axis -90 7.62852e-016 20   XYZ
    dof rx rz
    limits (-45.0 90.0)
           (-70.0 20.0)
  end
  begin
     id 5 
     name ltoes
     direction 1.53544e-011 -4.21829e-011 1   
     length 1.10116   
     axis -90 7.62852e-016 20   XYZ
    dof rx
    limits (-90.0 20.0)
  end
  begin
     id 6 
     name rhipjoint
     direction -0.554414 -0.743062 0.374812   
     length 2.4371  
     axis 0 0 0  XYZ 
  end
  begin
     id 7 
     name rfemur
     direction -0.34202 -0.939693 0   
     length 7.47254   
     axis 0 0 -20   XYZ
    dof rx ry rz
    limits (-160.0 20.0)
           (-70.0 70.0)
           (-70.0 60.0)
  end
  begin
     id 8 
     name rtibia
     direction -0.34202 -0.939693 0   
     length 7.65855   
     axis 0 0 -20   XYZ
    dof rx
    limits (-10.0 170.0)
 end
 begin
     id 9 
     name rfoot
     direction -0.133779 -0.367555 0.92033   
     length 2.43006  
     axis -90 -7.62852e-016 -20   XYZ
    dof rx rz
    limits (-45.0 90.0)
           (-20.0 70.0)
  end
  begin
     id 10 
     name rtoes
     direction -1.53563e-011 -4.21889e-011 1   
     length 1.19625   
     axis -90 -7.62852e-016 -20   XYZ
    dof rx
    limits (-90.0 20.0)
  end
  begin
     id 11 
     name lowerback
     direction 0.0249066 0.998043 -0.0573585   
     length 2.08485   
     axis 0 0 0   XYZ
    dof rx ry rz
    limits (-20.0 45.0)
           (-30.0 30.0)
           (-30.0 30.0)
  end
  begin
     id 12 
     name upperback
     direction 0.0237884 0.999673 0.00943178   
     length 2.08515   
     axis 0 0 0   XYZ
    dof rx ry rz
    limits (-20.0 45.0)
           (-30.0 30.0)
           (-30.0 30.0)
  end
  begin
     id 13 
     name thorax
     direction 0.0106671 0.999301 0.0358174   
     length 2.09037   
     axis 0 0 0   XYZ
    dof rx ry rz
    limits (-20.0 45.0)
           (-30.0 30.0)
           (-30.0 30.0)
  end
  begin
     id 14 
     name lowerneck
     direction -0.0580016 0.987052 0.149546   
     length 1.84454   
     axis 0 0 0   XYZ
    dof rx ry rz
    limits (-20.0 45.0)
           (-30.0 30.0)
           (-30.0 30.0)
  end
  begin
     id 15 
     name upperneck
     direction 0.079456 0.981963 -0.171567   
     length 1.88141   
     axis 0 0 0   XYZ
    dof rx ry rz
    limits (-20.0 45.0)
           (-30.0 30.0)
           (-30.0 30.0)
  end
  begin
     id 16
     name head
     direction 0.0262167 0.9967 -0.0768276  
     length 1.89541  
     axis 0 0 0   XYZ
    dof rx ry rz
    limits (-20.0 45.0)
           (-30.0 30.0)
           (-30.0 30.0)
  end
  begin
     id 17 
     name lclavicle
     direction 0.946135 0.322134 -0.0325326  
     length 3.949  
     axis 0 0 0   XYZ
    dof ry rz
    limits (-20.0 10.0)
           (0.0 20.0)
  end
  begin
     id 18 
     name lhumerus
     direction 1 -4.48964e-011 1.94005e-028   
     length 5.10995   
     axis 180 -30 -90   XYZ
    dof rx ry rz
    limits (-60.0 90.0)
           (-90.0 90.0)
           (-90.0 90.0)
  end
  begin
     id 19
     name lradius
     direction 1 -4.48976e-011 2.87852e-027   
     length 3.21207   
     axis 180 -30 -90   XYZ
    dof rx
    limits (-10.0 170.0)
  end
  begin
     id 20
     name lwrist
     direction 1 -4.48963e-011 1.9975e-027   
     length 1.60604   
     axis 2.96054e-016 90 90   XYZ
    dof ry
    limits (-180.0 0.0)
 end
  begin
     id 21 
     name lhand
     direction 1 -4.48919e-011 4.00227e-027   
     length 0.63349   
     axis -2.5488e-015 90 90   XYZ
    dof rx rz
    limits (-90.0 90.0)
           (-45.0 45.0)
  end
  begin
     id 22 
     name lfingers
     direction 1 -4.49037e-011 7.9652e-027   
     length 0.510736   
     axis -5.0975e-015 90 90   XYZ
    dof rx
    limits (0.0 90.0)
  end
  begin
     id 23
     name lthumb
     direction 0.707107 -6.34922e-011 0.707107   
     length 0.733318   
     axis -90 45 -4.48553e-014   XYZ
    dof rx rz
    limits (-45.0 45.0)
           (-45.0 45.0)
  end
  begin
     id 24 
     name rclavicle
     direction -0.940085 0.328911 -0.0897654   
     length 3.93848  
     axis 0 0 0   XYZ 
    dof ry rz
    limits (-10.0 20.0)
           (-20.0 0.0)
  end
  begin
     id 25 
     name rhumerus
     direction -1 -4.48958e-011 3.02044e-027  
     length 5.25109   
     axis 180 30 90   XYZ
    dof rx ry rz
    limits (-90.0 60.0)
           (-90.0 90.0)
           (-90.0 90.0)
  end
  begin
     id 26 
     name rradius
     direction -1 -4.4897e-011 9.78352e-028   
     length 3.28364   
     axis 180 30 90   XYZ
    dof rx
    limits (-10.0 170.0)
  end
  begin
     id 27 
     name rwrist
     direction -1 -4.48943e-011 1.99918e-027   
     length 1.64182   
     axis 2.96054e-016 -90 -90   XYZ
    dof ry
    limits (-180.0 0.0)
  end
  begin
     id 28
     name rhand
     direction -1 -4.49024e-011 3.98478e-027   
     length 0.599745   
     axis -2.5488e-015 -90 -90   XYZ
    dof rx rz
    limits (-90.0 90.0)
           (-45.0 45.0)
  end
  begin
     id 29
     name rfingers
     direction -1 -4.48914e-011 8.00621e-027   
     length 0.48353   
     axis -5.0975e-015 -90 -90   XYZ
    dof rx
    limits (0.0 90.0)
  end
  begin
     id 30
     name rthumb
     direction -0.707107 -6.34992e-011 0.707107   
     length 0.694255   
     axis -90 -45 4.48553e-014   XYZ
    dof rx rz
    limits (-45.0 45.0)
           (-45.0 45.0)
  end
:hierarchy
  begin
    root lhipjoint rhipjoint lowerback
    lhipjoint lfemur
    lfemur ltibia
    ltibia lfoot
    lfoot ltoes
    rhipjoint rfemur
    rfemur rtibia
    rtibia rfoot
    rfoot rtoes
    lowerback upperback
    upperback thorax
    thorax lowerneck lclavicle rclavicle
    lowerneck upperneck
    upperneck head
    lclavicle lhumerus
    lhumerus lradius
    lradius lwrist
    lwrist lhand lthumb
    lhand lfingers
    rclavicle rhumerus
    rhumerus rradius
    rradius rwrist
    rwrist rhand rthumb
    rhand rfingers
  end

#!OML:ASF E:\CV Data\Top Level 1\Subject 1\Session 1\player.ASF
:FULLY-SPECIFIED
:DEGREES
511
root 8.06281 17.4331 -14.1934 9.75757 -39.028 0.536898
lowerback 22.5152 -0.816996 2.59982
upperback 5.48296 -0.314906 4.29855
thorax -6.53729 -0.251224 3.28409
lowerneck -22.8397 0.801093 -6.88463
upperneck 10.3887 2.36266 4.93852
head 6.70607 1.31407 3.01051
rclavicle 3.10104e-014 1.74931e-014
rhumerus -21.4183 3.69848 -76.6354
rradius 47.1138
rwrist -31.5536
rhand -23.4876 0.598212
rfingers 7.12502
rthumb 2.97217 -29.3608
lclavicle 3.10104e-014 1.74931e-014
lhumerus 1.56628 -12.3073 81.0533
lradius 51.8291
lwrist 9.43387
lhand -14.4247 15.9169
lfingers 7.12502
lthumb 11.7196 45.5691
rfemur -30.6908 2.18453 18.8057
rtibia 41.1452
rfoot -18.6107 -5.71201
rtoes 2.4332
lfemur -30.3646 10.0623 -15.5622
ltibia 25.1861
lfoot 3.47043 7.95272
ltoes -4.50841
512
root 8.03558 17.4447 -14.1585 9.60843 -39.0044 0.507576
lowerback 22.1213 -0.793997 2.66686
upperback 5.39706 -0.281195 4.3188
thorax -6.42879 -0.233711 3.24941
lowerneck -22.8561 0.834827 -6.88984
upperneck 10.4222 2.42766 4.82969
head 6.71673 1.33442 2.98355
rclavicle 1.31993e-013 -7.63333e-014
rhumerus -22.4054 2.52423 -75.6069
rradius 45.6513
rwrist -31.7387
rhand -23.8029 0.151248
rfingers 7.12502
rthumb 2.66771 -29.8118
lclavicle 1.31993e-013 -7.63333e-014
lhumerus 0.861169 -11.7523 80.2556
lradius 51.3314
lwrist 8.2003
lhand -14.6047 15.8924
lfingers 7.12502
lthumb 11.546 45.5544
rfemur -30.1762 2.27975 18.8264
rtibia 40.8577
rfoot -18.6393 -5.83297
rtoes 2.40768
lfemur -29.8627 9.88485 -15.4538
ltibia 24.9376
lfoot 3.45836 8.13325
ltoes -4.64096
513
root 8.00846 17.4557 -14.1251 9.48511 -38.906 0.485291
lowerback 21.7159 -0.77234 2.75364
upperback 5.30445 -0.245724 4.33151
thorax -6.32099 -0.215256 3.19492
lowerneck -22.9065 0.838881 -6.86203
upperneck 10.4834 2.4465 4.71018
head 6.74545 1.3327 2.94358
rclavicle 8.42847e-014 -8.74653e-014
rhumerus -23.3792 1.19431 -74.5276
rradius 44.1565
rwrist -31.9183
rhand -24.0536 -0.246386
rfingers 7.12502
rthumb 2.42558 -30.2123
lclavicle 8.42847e-014 -8.74653e-014
lhumerus 0.193612 -11.2978 79.4575
lradius 50.8381
lwrist 7.34213
lhand -14.8036 15.9852
lfingers 7.12502
lthumb 11.3542 45.6579
rfemur -29.6954 2.34177 18.8517
rtibia 40.5791
rfoot -18.667 -5.99531
rtoes 2.38864
lfemur -29.4161 9.67794 -15.3567
ltibia 24.6883
lfoot 3.44984 8.26707
ltoes -4.75164
514
root 7.98093 17.4666 -14.0912 9.36293 -38.7818 0.472279
lowerback 21.3036 -0.769569 2.81911
upperback 5.20533 -0.238917 4.35861
thorax -6.2146 -0.210268 3.17628
lowerneck -22.9541 0.855657 -6.85993
upperneck 10.5648 2.49089 4.5858
head 6.77854 1.34135 2.90935
rclavicle -7.95139e-016 -2.70347e-014
rhumerus -24.3191 -0.147782 -73.3844
rradius 42.6135
rwrist -32.0574
rhand -24.2543 -0.616602
rfingers 7.12502
rthumb 2.23174 -30.5847
lclavicle -7.95139e-016 -2.70347e-014
lhumerus -0.513978 -10.8022 78.6877
lradius 50.3689
lwrist 6.76742
lhand -15.0292 16.1833
lfingers 7.12502
lthumb 11.1365 45.8678
rfemur -29.2212 2.39668 18.8713
rtibia 40.3104
rfoot -18.7025 -6.17734
rtoes 2.36439
lfemur -28.981 9.46205 -15.2708
ltibia 24.4368
lfoot 3.43733 8.38311
ltoes -4.85264
515
root 7.95323 17.4772 -14.0576 9.22796 -38.6019 0.473833
lowerback 20.9028 -0.774022 2.89329
upperback 5.09999 -0.239476 4.37907
thorax -6.11988 -0.208804 3.14787
lowerneck -23.0068 0.866113 -6.8322
upperneck 10.6619 2.51915 4.46269
head 6.81903 1.34314 2.86997
rclavicle -6.36111e-015 -5.56597e-014
rhumerus -25.2546 -1.61976 -72.1717
rradius 41.0416
rwrist -32.1039
rhand -24.4236 -1.04682
rfingers 7.12502
rthumb 2.06825 -31.0165
lclavicle -6.36111e-015 -5.56597e-014
lhumerus -1.22693 -10.3653 77.9292
lradius 49.9287
lwrist 6.45036
lhand -15.2517 16.5115
lfingers 7.12502
lthumb 10.922 46.2075
rfemur -28.7197 2.42233 18.8873
rtibia 40.0073
rfoot -18.7236 -6.38543
rtoes 2.32505
lfemur -28.5133 9.23541 -15.2019
ltibia 24.1003
lfoot 3.46356 8.44072
ltoes -4.9707
516
root 7.92518 17.4877 -14.0241 9.1 -38.3785 0.488412
lowerback 20.4872 -0.797209 2.95371
upperback 4.98168 -0.267009 4.409
thorax -6.02968 -0.220059 3.14441
lowerneck -23.0302 0.886496 -6.82297
upperneck 10.7579 2.56458 4.34055
head 6.85337 1.35222 2.83536
rclavicle 1.43125e-014 3.65764e-014
rhumerus -26.1729 -3.15459 -70.8734
rradius 39.4319
rwrist -31.9784
rhand -24.5526 -1.4918
rfingers 7.12502
rthumb 1.94369 -31.4627
lclavicle 1.43125e-014 3.65764e-014
lhumerus -1.99807 -9.89034 77.2113
lradius 49.5333
lwrist 6.30081
lhand -15.4616 16.9165
lfingers 7.12502
lthumb 10.7195 46.623
rfemur -28.2302 2.42838 18.8974
rtibia 39.7087
rfoot -18.749 -6.61688
rtoes 2.28458
lfemur -28.0715 9.00939 -15.1538
ltibia 23.7561
lfoot 3.49614 8.44762
ltoes -5.15038
517
root 7.89648 17.5091 -13.9912 8.96719 -38.1374 0.51085
lowerback 20.0724 -0.831532 3.00183
upperback 4.85932 -0.31167 4.44266
thorax -5.94276 -0.239515 3.15618
lowerneck -23.0206 0.913426 -6.83753
upperneck 10.8428 2.62274 4.22745
head 6.87772 1.36713 2.80827
rclavicle -6.2816e-014 4.45278e-014
rhumerus -27.071 -4.76756 -69.4877
rradius 37.7894
rwrist -31.627
rhand -24.665 -1.94586
rfingers 7.12502
rthumb 1.83507 -31.9177
lclavicle -6.2816e-014 4.45278e-014
lhumerus -2.80877 -9.38728 76.5214
lradius 49.165
lwrist 6.26257
lhand -15.655 17.3806
lfingers 7.12502
lthumb 10.533 47.0967
rfemur -27.7108 2.43528 18.9053
rtibia 39.3821
rfoot -18.7736 -6.86474
rtoes 2.24253
lfemur -27.6085 8.7879 -15.1187
ltibia 23.3868
lfoot 3.52245 8.42979
ltoes -5.33986
518
root 7.86775 17.519 -13.9578 8.83552 -37.8985 0.531886
lowerback 19.664 -0.866159 3.03856
upperback 4.73543 -0.359209 4.47702
thorax -5.85985 -0.260355 3.17571
lowerneck -22.9852 0.942466 -6.86769
upperneck 10.9151 2.68545 4.12381
head 6.89331 1.38443 2.7867
rclavicle 1.03368e-014 -3.81667e-014
rhumerus -27.961 -6.47166 -68.0115
rradius 36.1359
rwrist -31.0349
rhand -24.7937 -2.38827
rfingers 7.12502
rthumb 1.71079 -32.3612
lclavicle 1.03368e-014 -3.81667e-014
lhumerus -3.64818 -8.86192 75.8578
lradius 48.8186
lwrist 6.27916
lhand -15.8903 17.8494
lfingers 7.12502
lthumb 10.3059 47.5769
rfemur -27.2176 2.45603 18.9117
rtibia 39.0841
rfoot -18.7983 -7.12176
rtoes 2.19221
lfemur -27.1679 8.58753 -15.0846
ltibia 23.0362
lfoot 3.54777 8.39058
ltoes -5.53382
519
root 7.83885 17.5287 -13.9239 8.69628 -37.6789 0.546819
lowerback 19.2668 -0.880247 3.08448
upperback 4.6228 -0.380019 4.49618
thorax -5.77088 -0.268549 3.16677
lowerneck -22.9748 0.96286 -6.85519
upperneck 10.9958 2.72755 4.00578
head 6.91776 1.39223 2.75172
rclavicle -2.38542e-014 -1.59028e-015
rhumerus -28.8738 -8.33179 -66.4375
rradius 34.4964
rwrist -30.1946
rhand -24.9482 -2.77816
rfingers 7.12502
rthumb 1.56155 -32.7522
lclavicle -2.38542e-014 -1.59028e-015
lhumerus -4.47504 -8.36922 75.2101
lradius 48.4921
lwrist 6.30797
lhand -16.0956 18.3277
lfingers 7.12502
lthumb 10.108 48.0649
rfemur -26.7106 2.50002 18.9195
rtibia 38.7828
rfoot -18.8218 -7.378
rtoes 2.13999
lfemur -26.7097 8.40432 -15.047
ltibia 22.6878
lfoot 3.56355 8.3543
ltoes -5.72024
